<svg xmlns="http://www.w3.org/2000/svg" xmlns:svg="http://www.w3.org/2000/svg" id="svg2" width="699.07" height="699.07" version="1.1"><metadata id="metadata7"/><g id="layer1" transform="translate(-22.857171,-53.292217)"><rect id="rect2985" width="68.571" height="68.571" x="156.286" y="356.076" fill="#008cbc" fill-opacity="1" stroke="none"/><rect id="rect2985-7" width="68.571" height="68.571" x="157.143" y="276.076" fill="#008cbc" fill-opacity="1" stroke="none"/><rect id="rect2985-5" width="68.571" height="68.571" x="155.857" y="196.076" fill="#008cbc" fill-opacity="1" stroke="none"/><rect id="rect2985-7-2" width="68.571" height="68.571" x="156.714" y="116.076" fill="#008cbc" fill-opacity="1" stroke="none"/><rect id="rect2985-5-2" width="68.571" height="68.571" x="321.571" y="118.076" fill="#008cbc" fill-opacity="1" stroke="none"/><rect id="rect2985-7-2-1" width="68.571" height="68.571" x="239.571" y="116.076" fill="#008cbc" fill-opacity="1" stroke="none"/><rect id="rect2985-6" width="68.571" height="68.571" x="241.571" y="276.076" fill="#008cbc" fill-opacity="1" stroke="none"/><rect id="rect2985-7-0" width="68.571" height="68.571" x="319.571" y="198.934" fill="#008cbc" fill-opacity="1" stroke="none"/><rect id="rect2985-6-8" width="68.571" height="68.571" x="316.286" y="350.362" fill="#008cbc" fill-opacity="1" stroke="none"/><path id="path3866" fill="#008cbc" fill-opacity="1" stroke="#fff" stroke-dasharray="none" stroke-miterlimit="4" stroke-opacity="1" stroke-width="2.743" d="m 508.57143,823.79077 a 112.85714,100 0 1 1 -225.71428,0 l 112.85714,0 z" transform="matrix(2.4683545,0,0,2.0285714,-673.33456,-1203.6133)"/><path id="path3872" fill="#fff" fill-opacity="1" stroke="none" d="m 302.85714,610.93359 a 25.714285,21.428572 0 1 1 -51.42857,0 25.714285,21.428572 0 1 1 51.42857,0 z" transform="matrix(0.72222221,0,0,0.86666667,25.269843,-11.113619)"/><path id="path3866-8" fill="#008cbc" fill-opacity="1" stroke="none" d="m 508.57143,823.79077 a 112.85714,100 0 1 1 -225.71428,0 l 112.85714,0 z" transform="matrix(0.65647932,0.71468749,-0.5979172,0.5299827,882.61614,-314.58584)"/><path id="path3866-1" fill="#fff" fill-opacity="1" stroke="#008cbc" stroke-dasharray="none" stroke-miterlimit="4" stroke-opacity="1" stroke-width="12.753" d="M 508.57143,823.79077 A 112.85714,140.84508 0 0 1 396.23817,964.63433 l -0.52388,-140.84356 z" transform="matrix(0.0122882,0.95359556,-0.98735473,0.00801576,1008.6382,136.85395)"/></g></svg>